# xmcd CD database file
#
# Track frame offsets:
#	187
#	21267
#	43719
#	63104
#	82037
#	103162
#	123469
#	144519
#	162342
#	182889
#	202957
#
# Disc length: 3002 seconds
#
# Revision: 5
# Processed by: cddbd v1.5PL3 Copyright (c) Steve Scherf et al.
# Submitted via: CDex 1.50Beta7
#
DISCID=980bb80b
DTITLE=DEEN - DEEN
DYEAR=1900
DGENRE=
TTITLE0=瞳そらさないで
TTITLE1=FOR MY LIFE
TTITLE2=Keep on Dancin'
TTITLE3=いつかきっと……
TTITLE4=思いきり 笑って
TTITLE5=Memories
TTITLE6=このまま君だけを奪い去りたい
TTITLE7=広い世界で君と出逢った
TTITLE8=FOREVER
TTITLE9=恋が突然よみがえる
TTITLE10=永遠をあずけてくれ
EXTD=
EXTT0=
EXTT1=
EXTT2=
EXTT3=
EXTT4=
EXTT5=
EXTT6=
EXTT7=
EXTT8=
EXTT9=
EXTT10=
PLAYORDER=
